<svg width="256" height="256" viewBox="0 0 256 256" version="1" xmlns="http://www.w3.org/2000/svg"><g fill="#20f"><path d="M31 0h195c8 1 16 5 21 10s8 13 9 21v194c-1 9-5 18-12 24-5 4-12 6-19 7H31c-7-1-14-3-20-7-6-6-10-15-11-24V31c1-8 4-16 9-21C15 4 22 0 31 0m136 47c-17 3-33 12-44 25l-21 23c-1 2-4 5-7 4-7-1-14-4-21-3-7 0-12 4-17 8l-10 6c-2 3-1 8 3 10l31 19 6 3c4 0 7-3 7-7 0-3-2-5-4-6l-24-15c3-2 7-5 11-5 6 0 11 3 16 3 7 2 14-1 18-6l18-21c10-11 22-21 37-24 10-2 20-1 30-1v17c0 11-3 23-9 33-4 6-10 11-16 16l-21 19c-4 4-7 10-7 16 1 6 4 12 4 18 0 4-3 8-5 11l-14-24c-2-2-3-4-6-4-4 0-7 3-8 6l2 7 19 31c2 3 5 5 8 4s5-4 7-6c4-7 9-13 10-21 2-8-2-15-3-22-1-3 2-6 4-8l23-20c13-11 22-26 25-43 2-10 1-21 1-32 0-3 1-7-2-10s-7-2-10-2c-10 0-21-1-31 1m-24 45c-3 8 1 17 8 21 9 4 20 0 23-9 2-4 3-9-1-12-2-2-6-1-9 0 2-4 2-10-3-11-7-2-16 3-18 11m-17 30l-4 2a7440 7440 0 0 1-35 38c0 4 4 8 8 7 2 0 3-2 5-3l32-33c2-1 3-4 3-6-1-4-6-7-9-5m-63 27l-11 11c-3 3-7 6-6 10 1 5 7 8 11 5l12-12c2-2 5-5 4-8 0-5-6-8-10-6m7 28l-3 3-17 17c-2 1-4 3-4 5-1 4 4 9 8 8 2 0 4-3 6-4l18-18c2-2 3-6 1-8-1-4-5-5-9-3m27 7l-11 11c-3 2-6 5-6 9 1 5 7 8 11 5l12-12c2-2 5-5 4-9 0-4-6-7-10-4z"/><path d="M156 95l8-3-3 7c-2 4-8 0-5-4z"/></g><g fill="#fff"><path d="M167 47c10-2 21-1 31-1 3 0 7-1 10 2s2 7 2 10c0 11 1 22-1 32-3 17-12 32-25 43l-23 20c-2 2-5 5-4 8 1 7 5 14 3 22-1 8-6 14-10 21-2 2-4 5-7 6s-6-1-8-4l-19-31-2-7c1-3 4-6 8-6 3 0 4 2 6 4l14 24c2-3 5-7 5-11 0-6-3-12-4-18 0-6 3-12 7-16l21-19c6-5 12-10 16-16 6-10 9-22 9-33V60c-10 0-20-1-30 1-15 3-27 13-37 24l-18 21c-4 5-11 8-18 6-5 0-10-3-16-3-4 0-8 3-11 5l24 15c2 1 4 3 4 6 0 4-3 7-7 7l-6-3-31-19c-4-2-5-7-3-10l10-6c5-4 10-8 17-8 7-1 14 2 21 3 3 1 6-2 7-4l21-23c11-13 27-22 44-25z"/><path d="M143 92c2-8 11-13 18-11 5 1 5 7 3 11 3-1 7-2 9 0 4 3 3 8 1 12-3 9-14 13-23 9-7-4-11-13-8-21m13 3c-3 4 3 8 5 4l3-7-8 3zM126 122c3-2 8 1 9 5 0 2-1 5-3 6l-32 33c-2 1-3 3-5 3-4 1-8-3-8-7l3-6 32-32 4-2zM63 149c4-2 10 1 10 6 1 3-2 6-4 8l-12 12c-4 3-10 0-11-5-1-4 3-7 6-10l11-11zM70 177c4-2 8-1 9 3 2 2 1 6-1 8l-18 18c-2 1-4 4-6 4-4 1-9-4-8-8a1704 1704 0 0 0 21-22l3-3zM97 184c4-3 10 0 10 4 1 4-2 7-4 9l-12 12c-4 3-10 0-11-5 0-4 3-7 6-9l11-11z"/></g></svg>